<?xml version="1.0" standalone="no"?>
<!DOCTYPE svg PUBLIC "-//W3C//DTD SVG 20010904//EN"
 "http://www.w3.org/TR/2001/REC-SVG-20010904/DTD/svg10.dtd">
<svg version="1.0" xmlns="http://www.w3.org/2000/svg"
 width="260.000000pt" height="260.000000pt" viewBox="0 0 260.000000 260.000000"
 preserveAspectRatio="xMidYMid meet">
<metadata>
Created by potrace 1.11, written by Peter Selinger 2001-2013
</metadata>
<g transform="translate(0.000000,260.000000) scale(0.100000,-0.100000)"
fill="#000000" stroke="none">
<path d="M1619 2078 c-36 -28 -76 -66 -90 -85 -13 -18 -28 -33 -33 -33 -4 0
-24 14 -43 30 -90 80 -249 120 -402 102 -163 -20 -327 -113 -442 -252 l-46
-56 -129 -12 c-130 -13 -167 -20 -259 -49 -58 -18 -75 -30 -75 -50 0 -22 52
-62 83 -63 22 0 27 -5 27 -24 0 -27 11 -38 44 -41 11 -1 24 -3 27 -4 4 0 9
-10 12 -21 4 -16 14 -20 51 -20 34 0 51 -6 71 -24 25 -23 26 -29 20 -80 -26
-207 15 -444 106 -604 36 -64 104 -155 150 -201 117 -117 339 -192 482 -162
90 18 173 49 236 87 79 47 218 184 244 242 6 12 14 22 19 22 4 0 8 6 8 13 0 6
10 33 22 60 22 45 24 47 66 47 34 0 43 3 39 14 -4 10 5 16 31 21 23 4 38 3 40
-4 4 -13 41 -14 60 -3 7 5 10 15 7 23 -8 21 7 36 45 46 30 8 35 13 32 36 -1
15 2 27 8 27 45 0 -79 92 -129 96 -23 2 -45 13 -67 36 -31 31 -34 40 -44 136
-6 56 -8 107 -5 112 3 6 15 10 25 10 35 0 30 18 -21 87 -46 60 -99 158 -99
182 0 5 19 16 42 26 41 16 42 16 60 -7 10 -13 18 -32 18 -43 0 -30 44 -116 76
-149 27 -29 140 -86 169 -86 19 0 19 30 -1 128 -19 93 -50 144 -107 174 -35
19 -39 23 -20 26 71 11 182 -70 203 -149 14 -51 51 -63 146 -49 92 13 140 27
160 48 16 15 12 21 -67 95 -115 107 -118 108 -248 106 -60 -1 -114 1 -120 5
-8 5 4 25 34 58 39 44 125 197 125 223 0 11 -172 0 -195 -13 -11 -7 -46 -23
-77 -36 -46 -20 -60 -31 -72 -61 -12 -29 -46 -168 -46 -189 0 -9 -78 -46 -98
-46 -10 0 -25 11 -32 25 -12 22 -11 28 8 48 28 29 49 90 57 163 3 33 9 71 11
87 8 42 -21 35 -97 -25z m-858 -338 c38 -11 39 -12 93 -153 29 -76 63 -132 96
-162 41 -37 43 -51 14 -110 -27 -57 -37 -68 -32 -37 2 12 -4 17 -24 18 -15 1
-35 7 -44 14 -14 13 -14 15 2 27 17 12 16 14 -6 35 -21 19 -35 24 -78 27 -9 1
-8 7 4 26 20 31 12 55 -18 55 -35 0 -56 16 -40 32 6 6 12 20 12 31 0 16 -5 18
-40 12 -42 -7 -52 3 -25 25 8 7 15 17 15 22 0 14 -53 0 -66 -18 -6 -7 -19 -14
-29 -14 -14 0 -15 3 -5 15 22 27 -19 18 -87 -20 -50 -27 -75 -35 -115 -35 -65
0 -54 11 42 39 41 13 85 27 98 32 13 5 36 9 52 9 16 0 35 6 42 14 8 7 34 16
60 20 40 6 49 4 67 -15 12 -13 21 -28 21 -34 0 -36 115 -220 158 -252 43 -34
42 -2 -2 47 -46 51 -101 154 -117 218 -17 67 -33 77 -113 66 -56 -7 -242 -14
-458 -18 -50 0 -88 3 -89 9 -1 12 112 54 181 67 146 26 347 30 431 8z m-295
-127 c-35 -18 -196 -31 -196 -16 0 9 122 28 200 31 25 1 25 1 -4 -15z m82 -82
c-7 -12 -23 -21 -35 -21 -12 0 -25 -4 -28 -10 -3 -5 -16 -10 -28 -9 -16 0 -8
7 27 24 26 13 53 28 59 34 17 17 20 5 5 -18z m115 -1 c26 0 29 -2 23 -26 -8
-32 8 -54 40 -54 13 0 24 -4 24 -10 0 -5 -4 -10 -10 -10 -14 0 -13 -43 2 -58
7 -7 27 -12 46 -12 30 0 33 -2 22 -15 -20 -24 3 -65 34 -65 15 0 27 -7 31 -19
3 -10 15 -21 26 -24 19 -5 20 -7 4 -36 -14 -28 -20 -31 -60 -31 -41 0 -45 2
-45 24 0 14 5 28 10 31 19 12 10 25 -17 25 -16 0 -35 5 -43 10 -13 8 -12 11 5
24 20 15 20 15 -2 35 -12 12 -33 21 -47 21 -23 0 -24 3 -19 38 3 20 10 39 15
40 19 8 -5 22 -37 22 -30 0 -34 3 -32 26 1 17 -5 30 -18 38 -11 6 -22 12 -24
13 -2 2 2 10 9 18 9 11 16 13 24 5 5 -5 23 -10 39 -10z m-63 -56 c0 -19 -24
-44 -44 -44 -32 0 -39 10 -19 32 15 16 63 26 63 12z m616 -3 c11 9 14 8 14 -8
0 -16 -110 -164 -156 -211 -28 -27 -17 -44 25 -39 44 5 61 13 61 31 0 6 16 43
35 80 l35 69 0 -41 c0 -56 -19 -144 -36 -163 -8 -8 -14 -19 -14 -23 0 -11 -50
-75 -97 -126 -24 -24 -43 -48 -43 -52 0 -5 -11 -8 -25 -8 -14 0 -28 -7 -31
-15 -11 -26 -19 -16 -19 22 0 34 -3 38 -25 38 -21 0 -27 -8 -45 -67 -12 -37
-24 -71 -28 -74 -11 -11 -8 74 2 94 6 9 20 51 32 92 12 41 26 82 30 90 5 8 22
45 38 81 16 36 37 71 45 78 9 8 16 18 16 23 0 5 23 30 52 56 28 26 58 55 67
64 11 13 19 14 33 7 14 -7 24 -7 34 2z m-566 -91 c-27 -38 -15 -57 42 -66 22
-4 35 -10 30 -13 -31 -20 -14 -71 23 -71 27 0 28 -2 19 -49 -5 -25 -11 -31
-28 -29 -20 3 -23 14 -15 47 3 10 -8 17 -34 21 -37 7 -75 30 -49 30 19 0 14
28 -6 34 -10 4 -33 20 -50 37 -30 30 -31 32 -17 59 12 24 22 29 57 32 24 2 45
2 47 1 2 -1 -7 -16 -19 -33z m936 -53 c2 -2 -20 -3 -49 -3 -52 -1 -73 -10
-169 -70 -54 -34 -51 -31 -44 -43 5 -7 13 -7 24 -1 108 60 208 78 252 47 21
-14 21 -14 -2 -21 -36 -9 -48 -7 -48 9 0 8 -9 15 -20 15 -11 0 -20 -4 -20 -8
0 -5 -14 -19 -32 -32 -28 -21 -32 -21 -43 -6 -15 20 -25 21 -25 1 0 -8 -7 -15
-15 -15 -8 0 -15 -4 -15 -9 0 -20 -41 -23 -55 -4 -14 17 -15 17 -46 0 -18 -10
-36 -14 -40 -10 -14 15 19 73 48 84 15 5 51 22 78 36 28 14 73 34 100 43 44
16 54 16 84 3 19 -7 36 -15 37 -16z m101 -59 c29 -21 54 -38 57 -38 3 0 16
-10 29 -22 14 -13 44 -37 68 -55 112 -81 155 -123 138 -133 -17 -11 -79 11
-90 32 -5 10 -14 18 -19 18 -14 0 -70 55 -70 69 0 6 -7 11 -15 11 -8 0 -15 4
-15 8 0 18 -137 142 -157 142 -7 0 -13 4 -13 10 0 14 30 0 87 -42z m7 -73 c11
-8 17 -18 13 -21 -4 -4 -13 -1 -21 5 -17 14 -32 8 -105 -42 -40 -27 -45 -29
-56 -14 -17 23 -30 21 -53 -8 -21 -26 -69 -39 -65 -17 5 20 -32 14 -71 -13
-39 -27 -56 -31 -56 -15 0 17 -47 11 -84 -11 -38 -22 -45 -15 -24 24 19 36 34
47 47 34 8 -8 19 -5 41 11 26 20 31 21 36 7 8 -21 44 -19 73 4 17 13 35 17 55
14 23 -3 37 1 54 17 18 17 28 20 45 13 23 -11 108 16 115 36 4 11 20 5 56 -24z
m195 -195 c6 0 11 -4 11 -10 0 -5 -8 -7 -17 -3 -27 9 -83 53 -83 64 0 5 -9 20
-21 32 -11 12 -30 36 -41 52 -11 17 15 -7 59 -52 44 -46 85 -83 92 -83z m-168
108 c21 -23 39 -47 39 -54 0 -6 9 -19 20 -29 11 -10 20 -23 20 -29 0 -6 -17 7
-36 29 -20 22 -45 50 -56 63 -20 22 -48 30 -48 14 0 -5 8 -17 18 -28 29 -33
63 -84 56 -84 -4 0 -27 23 -52 50 -25 28 -53 50 -64 50 -25 0 -23 -23 4 -35
32 -15 34 -33 3 -28 -14 3 -25 11 -25 18 0 7 -7 16 -16 19 -15 6 -15 8 1 26
10 11 22 20 27 20 4 0 17 9 28 20 28 28 36 26 81 -22z m209 27 c11 -13 10 -14
-4 -9 -9 3 -16 10 -16 15 0 13 6 11 20 -6z m-1050 -14 c0 -41 -11 -51 -55 -51
-70 0 -71 32 -2 57 46 17 57 15 57 -6z m666 -65 c3 -14 3 -30 -1 -35 -8 -15
-78 -14 -93 1 -9 9 -16 5 -31 -14 -25 -32 -83 -58 -89 -40 -2 7 -11 20 -20 29
-13 12 -14 17 -4 21 7 2 21 13 31 23 16 17 19 18 31 4 7 -8 18 -15 25 -15 17
0 75 33 75 43 0 4 16 7 35 7 28 0 36 -4 41 -24z m-268 -56 c16 -1 16 -2 0 -14
-10 -7 -18 -18 -18 -24 0 -12 -24 -22 -56 -22 -17 0 -24 6 -24 20 0 27 -14 25
-44 -5 -29 -29 -48 -32 -66 -10 -11 13 -8 21 15 45 20 20 32 27 39 20 16 -16
48 -12 80 10 30 19 30 19 43 -1 8 -10 22 -19 31 -19z"/>
<path d="M990 1237 c0 -8 -7 -20 -15 -27 -17 -14 -21 -60 -5 -60 6 0 10 -13
10 -29 0 -16 7 -34 15 -41 8 -7 15 -18 15 -26 0 -8 10 -12 28 -11 27 2 105 72
99 90 -1 5 -20 15 -41 22 -42 15 -76 42 -76 60 0 7 -7 18 -15 25 -12 10 -15
10 -15 -3z"/>
<path d="M133 1760 c-13 -5 -23 -14 -23 -20 0 -7 6 -8 19 0 11 5 37 14 58 19
l38 9 -35 0 c-19 1 -45 -3 -57 -8z"/>
<path d="M190 1523 c0 -16 24 -33 46 -33 13 0 26 -4 29 -10 3 -5 21 -10 38 -9
18 0 25 3 17 6 -8 3 -24 14 -35 23 -22 20 -95 38 -95 23z"/>
</g>
</svg>
